<?xml version="1.0" encoding="UTF-8"?>
<svg xmlns="http://www.w3.org/2000/svg" viewBox="0 0 1200 630" width="1200" height="630">
  <defs>
    <linearGradient id="bg" x1="0" y1="0" x2="0" y2="1">
      <stop offset="0%" stop-color="#3F6E52" stop-opacity="0.07"/>
      <stop offset="100%" stop-color="#FAF7F2" stop-opacity="0"/>
    </linearGradient>
    <linearGradient id="band" x1="0" y1="0" x2="1" y2="0">
      <stop offset="0%" stop-color="#3F6E52"/>
      <stop offset="100%" stop-color="#325940"/>
    </linearGradient>
  </defs>
  <rect width="1200" height="630" fill="#FAF7F2"/>
  <rect width="1200" height="630" fill="url(#bg)"/>
  <rect x="0" y="0" width="1200" height="8" fill="url(#band)"/>
  <circle cx="1050" cy="100" r="300" fill="#3F6E52" opacity="0.03"/>
  <circle cx="100" cy="500" r="250" fill="#325940" opacity="0.03"/>
  <rect x="40" y="40" width="380" height="500" rx="16" fill="#3F6E52" opacity="0.04"/>
  <path d="M560 180 Q540 200 540 240 Q540 280 560 300 L580 320 Q590 330 590 350 L590 390" stroke="#3F6E52" stroke-width="4" fill="none" stroke-linecap="round"/><path d="M640 180 Q660 200 660 240 Q660 280 640 300 L620 320 Q610 330 610 350 L610 390" stroke="#3F6E52" stroke-width="4" fill="none" stroke-linecap="round"/><rect x="550" y="150" width="100" height="40" rx="6" fill="#3F6E52" opacity="0.15" stroke="#3F6E52" stroke-width="1.5"/><circle cx="565" cy="395" r="6" fill="#3F6E52" opacity="0.3"/><circle cx="635" cy="395" r="6" fill="#3F6E52" opacity="0.3"/><circle cx="560" cy="260" r="4" fill="#B5651D" opacity="0.5"/><circle cx="640" cy="260" r="4" fill="#B5651D" opacity="0.5"/>
  <text x="600" y="350" text-anchor="middle" font-family="Georgia,'Times New Roman',serif" font-size="34" font-weight="700" fill="#1C2B24"><tspan x="600" dy="0">Cost to Replace a Septic Tank or Repair a Sewer</tspan><tspan x="600" dy="36">Line</tspan></text>
  <text x="600" y="430" text-anchor="middle" font-family="system-ui,Helvetica,Arial,sans-serif" font-size="18" fill="#6B6459">National Average Cost</text>
  <rect x="460" y="445" width="280" height="50" rx="25" fill="#3F6E52" opacity="0.12"/>
  <text x="600" y="478" text-anchor="middle" font-family="Georgia,'Times New Roman',serif" font-size="22" font-weight="700" fill="#3F6E52">$2,500 — $12,000</text>
  <rect x="0" y="590" width="1200" height="40" fill="#3F6E52" opacity="0.04"/>
  <text x="40" y="616" font-family="system-ui,Helvetica,Arial,sans-serif" font-size="13" fill="#6B6459">Plumbing &amp; Water Systems</text>
  <text x="1140" y="616" text-anchor="end" font-family="Georgia,'Times New Roman',serif" font-size="15" font-weight="600" fill="#3F6E52">HomeCostGuide</text>
  <text x="600" y="616" text-anchor="middle" font-family="system-ui,Helvetica,Arial,sans-serif" font-size="12" fill="#6B6459">Source: HomeGuide 2026 &amp; Angi 2026</text>
</svg>