<?xml version="1.0" encoding="UTF-8"?>
<svg xmlns="http://www.w3.org/2000/svg" viewBox="0 0 1200 630" width="1200" height="630">
  <defs>
    <linearGradient id="bg" x1="0" y1="0" x2="0" y2="1">
      <stop offset="0%" stop-color="#6B6459" stop-opacity="0.07"/>
      <stop offset="100%" stop-color="#FAF7F2" stop-opacity="0"/>
    </linearGradient>
    <linearGradient id="band" x1="0" y1="0" x2="1" y2="0">
      <stop offset="0%" stop-color="#6B6459"/>
      <stop offset="100%" stop-color="#1C2B24"/>
    </linearGradient>
  </defs>
  <rect width="1200" height="630" fill="#FAF7F2"/>
  <rect width="1200" height="630" fill="url(#bg)"/>
  <rect x="0" y="0" width="1200" height="8" fill="url(#band)"/>
  <circle cx="1050" cy="100" r="300" fill="#6B6459" opacity="0.03"/>
  <circle cx="100" cy="500" r="250" fill="#1C2B24" opacity="0.03"/>
  <rect x="40" y="40" width="380" height="500" rx="16" fill="#6B6459" opacity="0.04"/>
  <circle cx="580" cy="240" r="35" fill="none" stroke="#6B6459" stroke-width="3"/><circle cx="580" cy="240" r="12" fill="#6B6459" opacity="0.2"/><rect x="610" y="260" width="40" height="12" rx="3" fill="#6B6459" transform="rotate(45 630 266)"/><rect x="525" y="370" width="150" height="25" rx="4" fill="#B5651D" opacity="0.1" stroke="#B5651D" stroke-width="1"/><rect x="535" y="378" width="40" height="9" rx="2" fill="#B5651D" opacity="0.3"/><circle cx="560" cy="300" r="50" fill="none" stroke="#3F6E52" stroke-width="1" opacity="0.15"/>
  <text x="600" y="370" text-anchor="middle" font-family="Georgia,'Times New Roman',serif" font-size="34" font-weight="700" fill="#1C2B24"><tspan x="600" dy="0">Mold Remediation Cost by Square Footage</tspan></text>
  <text x="600" y="430" text-anchor="middle" font-family="system-ui,Helvetica,Arial,sans-serif" font-size="18" fill="#6B6459">National Average Cost</text>
  <rect x="460" y="445" width="280" height="50" rx="25" fill="#6B6459" opacity="0.12"/>
  <text x="600" y="478" text-anchor="middle" font-family="Georgia,'Times New Roman',serif" font-size="22" font-weight="700" fill="#6B6459">$1,500 — $8,000</text>
  <rect x="0" y="590" width="1200" height="40" fill="#6B6459" opacity="0.04"/>
  <text x="40" y="616" font-family="system-ui,Helvetica,Arial,sans-serif" font-size="13" fill="#6B6459">Home Maintenance</text>
  <text x="1140" y="616" text-anchor="end" font-family="Georgia,'Times New Roman',serif" font-size="15" font-weight="600" fill="#6B6459">HomeCostGuide</text>
  <text x="600" y="616" text-anchor="middle" font-family="system-ui,Helvetica,Arial,sans-serif" font-size="12" fill="#6B6459">Source: Angi 2026 &amp; HomeGuide 2026</text>
</svg>