<?xml version="1.0" encoding="UTF-8"?>
<svg xmlns="http://www.w3.org/2000/svg" viewBox="0 0 1200 630" width="1200" height="630">
  <defs>
    <linearGradient id="bg" x1="0" y1="0" x2="0" y2="1">
      <stop offset="0%" stop-color="#3F6E52" stop-opacity="0.07"/>
      <stop offset="100%" stop-color="#FAF7F2" stop-opacity="0"/>
    </linearGradient>
    <linearGradient id="band" x1="0" y1="0" x2="1" y2="0">
      <stop offset="0%" stop-color="#3F6E52"/>
      <stop offset="100%" stop-color="#325940"/>
    </linearGradient>
  </defs>
  <rect width="1200" height="630" fill="#FAF7F2"/>
  <rect width="1200" height="630" fill="url(#bg)"/>
  <rect x="0" y="0" width="1200" height="8" fill="url(#band)"/>
  <circle cx="1050" cy="100" r="300" fill="#3F6E52" opacity="0.03"/>
  <circle cx="100" cy="500" r="250" fill="#325940" opacity="0.03"/>
  <rect x="40" y="40" width="380" height="500" rx="16" fill="#3F6E52" opacity="0.04"/>
  <rect x="520" y="200" width="160" height="180" rx="12" fill="#3F6E52" opacity="0.12" stroke="#3F6E52" stroke-width="1.5"/><rect x="540" y="220" width="120" height="30" rx="4" fill="#3F6E52" opacity="0.2"/><rect x="540" y="260" width="120" height="20" rx="2" fill="#3F6E52" opacity="0.1"/><circle cx="600" cy="340" r="25" fill="none" stroke="#B5651D" stroke-width="3"/><path d="M600 315 L600 365 M575 340 L625 340" stroke="#B5651D" stroke-width="3"/><path d="M540 160 Q540 140 560 140 L640 140 Q660 140 660 160 L660 200 L540 200 Z" fill="#3F6E52" opacity="0.15"/><path d="M556 160 L556 195 M600 160 L600 195 M644 160 L644 195" stroke="#3F6E52" stroke-width="1.5" opacity="0.3"/>
  <text x="600" y="350" text-anchor="middle" font-family="Georgia,'Times New Roman',serif" font-size="34" font-weight="700" fill="#1C2B24"><tspan x="600" dy="0">Furnace Repair vs. Replace: Cost &amp; Decision</tspan><tspan x="600" dy="36">Guide</tspan></text>
  <text x="600" y="430" text-anchor="middle" font-family="system-ui,Helvetica,Arial,sans-serif" font-size="18" fill="#6B6459">National Average Cost</text>
  <rect x="460" y="445" width="280" height="50" rx="25" fill="#3F6E52" opacity="0.12"/>
  <text x="600" y="478" text-anchor="middle" font-family="Georgia,'Times New Roman',serif" font-size="22" font-weight="700" fill="#3F6E52">$100 — $1,500 for repair</text>
  <rect x="0" y="590" width="1200" height="40" fill="#3F6E52" opacity="0.04"/>
  <text x="40" y="616" font-family="system-ui,Helvetica,Arial,sans-serif" font-size="13" fill="#6B6459">HVAC &amp; Energy</text>
  <text x="1140" y="616" text-anchor="end" font-family="Georgia,'Times New Roman',serif" font-size="15" font-weight="600" fill="#3F6E52">HomeCostGuide</text>
  <text x="600" y="616" text-anchor="middle" font-family="system-ui,Helvetica,Arial,sans-serif" font-size="12" fill="#6B6459">Source: HVAC Pricing Guide 2026</text>
</svg>