<?xml version="1.0" encoding="UTF-8"?>
<svg xmlns="http://www.w3.org/2000/svg" viewBox="0 0 1200 630" width="1200" height="630">
  <defs>
    <linearGradient id="bg" x1="0" y1="0" x2="0" y2="1">
      <stop offset="0%" stop-color="#B5651D" stop-opacity="0.07"/>
      <stop offset="100%" stop-color="#FAF7F2" stop-opacity="0"/>
    </linearGradient>
    <linearGradient id="band" x1="0" y1="0" x2="1" y2="0">
      <stop offset="0%" stop-color="#B5651D"/>
      <stop offset="100%" stop-color="#945116"/>
    </linearGradient>
  </defs>
  <rect width="1200" height="630" fill="#FAF7F2"/>
  <rect width="1200" height="630" fill="url(#bg)"/>
  <rect x="0" y="0" width="1200" height="8" fill="url(#band)"/>
  <circle cx="1050" cy="100" r="300" fill="#B5651D" opacity="0.03"/>
  <circle cx="100" cy="500" r="250" fill="#945116" opacity="0.03"/>
  <rect x="40" y="40" width="380" height="500" rx="16" fill="#B5651D" opacity="0.04"/>
  <path d="M580 140 L560 240 L590 240 L540 360 L620 240 L590 240 L630 140 Z" fill="#B5651D" opacity="0.15" stroke="#B5651D" stroke-width="1.5" stroke-linejoin="round"/><rect x="530" y="370" width="140" height="30" rx="4" fill="#B5651D" opacity="0.08" stroke="#B5651D" stroke-width="1"/><circle cx="600" cy="385" r="5" fill="#B5651D" opacity="0.4"/><line x1="600" y1="360" x2="600" y2="370" stroke="#B5651D" stroke-width="2"/><circle cx="600" cy="190" r="40" fill="none" stroke="#B5651D" stroke-width="1.5" opacity="0.2"/>
  <text x="600" y="350" text-anchor="middle" font-family="Georgia,'Times New Roman',serif" font-size="34" font-weight="700" fill="#1C2B24"><tspan x="600" dy="0">Cost to Upgrade a Home to 200-Amp Electrical</tspan><tspan x="600" dy="36">Service</tspan></text>
  <text x="600" y="430" text-anchor="middle" font-family="system-ui,Helvetica,Arial,sans-serif" font-size="18" fill="#6B6459">National Average Cost</text>
  <rect x="460" y="445" width="280" height="50" rx="25" fill="#B5651D" opacity="0.12"/>
  <text x="600" y="478" text-anchor="middle" font-family="Georgia,'Times New Roman',serif" font-size="22" font-weight="700" fill="#B5651D">$1,500 — $4,000</text>
  <rect x="0" y="590" width="1200" height="40" fill="#B5651D" opacity="0.04"/>
  <text x="40" y="616" font-family="system-ui,Helvetica,Arial,sans-serif" font-size="13" fill="#6B6459">Electrical</text>
  <text x="1140" y="616" text-anchor="end" font-family="Georgia,'Times New Roman',serif" font-size="15" font-weight="600" fill="#B5651D">HomeCostGuide</text>
  <text x="600" y="616" text-anchor="middle" font-family="system-ui,Helvetica,Arial,sans-serif" font-size="12" fill="#6B6459">Source: HomeGuide 2026 &amp; Angi 2026</text>
</svg>