<?xml version="1.0" encoding="UTF-8"?>
<svg xmlns="http://www.w3.org/2000/svg" viewBox="0 0 800 500" width="800" height="500">
  <rect width="800" height="500" fill="#FAF7F2"/>
  <rect x="0" y="0" width="800" height="6" fill="#6B6459" opacity="0.3"/>
  <text x="400" y="50" text-anchor="middle" font-family="Georgia,'Times New Roman',serif" font-size="22" font-weight="700" fill="#1C2B24">Repair or Replace? Make the Right Call</text>
  <text x="400" y="78" text-anchor="middle" font-family="system-ui,Helvetica,Arial,sans-serif" font-size="14" fill="#6B6459">Our decision guide helps you choose based on real cost data</text>
  <rect x="300" y="110" width="200" height="55" rx="27" fill="#6B6459" opacity="0.1" stroke="#6B6459" stroke-width="1.5"/>
  <text x="400" y="144" text-anchor="middle" font-family="system-ui,Helvetica,Arial,sans-serif" font-size="15" font-weight="600" fill="#1C2B24">Your Situation</text>
  <line x1="400" y1="165" x2="400" y2="205" stroke="#6B6459" stroke-width="2" stroke-dasharray="4,4"/>
  <polygon points="400,210 393,200 407,200" fill="#6B6459"/>
  <rect x="140" y="210" width="220" height="55" rx="8" fill="#6B6459" opacity="0.08" stroke="#6B6459" stroke-width="1"/>
  <text x="250" y="244" text-anchor="middle" font-family="system-ui,Helvetica,Arial,sans-serif" font-size="14" font-weight="600" fill="#1C2B24">Repair</text>
  <line x1="250" y1="265" x2="250" y2="295" stroke="#6B6459" stroke-width="2"/>
  <polygon points="250,300 243,290 257,290" fill="#6B6459"/>
  <rect x="150" y="300" width="200" height="55" rx="8" fill="#6B6459" opacity="0.06"/>
  <text x="250" y="326" text-anchor="middle" font-family="system-ui,Helvetica,Arial,sans-serif" font-size="12" fill="#6B6459">Cost: $400</text>
  <text x="250" y="344" text-anchor="middle" font-family="system-ui,Helvetica,Arial,sans-serif" font-size="11" fill="#6B6459">Best for minor issues</text>
  <line x1="400" y1="210" x2="540" y2="210" stroke="#6B6459" stroke-width="2"/>
  <polygon points="545,210 535,203 535,217" fill="#6B6459"/>
  <rect x="440" y="210" width="220" height="55" rx="8" fill="#6B6459" opacity="0.15" stroke="#6B6459" stroke-width="1.5"/>
  <text x="550" y="244" text-anchor="middle" font-family="system-ui,Helvetica,Arial,sans-serif" font-size="14" font-weight="600" fill="#1C2B24">Replace</text>
  <line x1="550" y1="265" x2="550" y2="295" stroke="#6B6459" stroke-width="2"/>
  <polygon points="550,300 543,290 557,290" fill="#6B6459"/>
  <rect x="450" y="300" width="200" height="55" rx="8" fill="#6B6459" opacity="0.1"/>
  <text x="550" y="326" text-anchor="middle" font-family="system-ui,Helvetica,Arial,sans-serif" font-size="12" fill="#6B6459">Cost: $1,300</text>
  <text x="550" y="344" text-anchor="middle" font-family="system-ui,Helvetica,Arial,sans-serif" font-size="11" fill="#6B6459">Best for major/older systems</text>
  <text x="400" y="420" text-anchor="middle" font-family="system-ui,Helvetica,Arial,sans-serif" font-size="13" font-weight="600" fill="#6B6459">Factor age, condition, and repair frequency</text>
</svg>