<?xml version="1.0" encoding="UTF-8"?>
<svg xmlns="http://www.w3.org/2000/svg" viewBox="0 0 1200 630" width="1200" height="630">
  <defs>
    <linearGradient id="bg" x1="0" y1="0" x2="0" y2="1">
      <stop offset="0%" stop-color="#B5651D" stop-opacity="0.12"/>
      <stop offset="100%" stop-color="#FAF7F2" stop-opacity="0"/>
    </linearGradient>
    <linearGradient id="band" x1="0" y1="0" x2="1" y2="0">
      <stop offset="0%" stop-color="#B5651D"/>
      <stop offset="100%" stop-color="#945116"/>
    </linearGradient>
    <filter id="shadow">
      <feDropShadow dx="0" dy="4" stdDeviation="8" flood-opacity="0.1"/>
    </filter>
  </defs>
  <rect width="1200" height="630" fill="#FAF7F2"/>
  <rect width="1200" height="630" fill="url(#bg)"/>
  <rect x="0" y="0" width="1200" height="6" fill="url(#band)"/>
  <circle cx="1000" cy="100" r="350" fill="#B5651D" opacity="0.04"/>
  <circle cx="200" cy="500" r="250" fill="#945116" opacity="0.03"/>
  <rect x="60" y="60" width="360" height="480" rx="20" fill="#B5651D" opacity="0.05"/>
  <rect x="80" y="80" width="320" height="200" rx="12" fill="#B5651D" opacity="0.08"/>
  <rect x="80" y="295" width="150" height="12" rx="4" fill="#B5651D" opacity="0.15"/>
  <rect x="80" y="315" width="200" height="12" rx="4" fill="#B5651D" opacity="0.1"/>
  <rect x="80" y="335" width="170" height="12" rx="4" fill="#B5651D" opacity="0.1"/>
  <rect x="80" y="370" width="280" height="40" rx="20" fill="#B5651D" opacity="0.12"/>
  <circle cx="920" cy="200" r="80" fill="none" stroke="#B5651D" stroke-width="1" opacity="0.15"/>
  <circle cx="920" cy="200" r="50" fill="#B5651D" opacity="0.06"/>
  <circle cx="920" cy="200" r="20" fill="#B5651D" opacity="0.1"/>
  <line x1="850" y1="420" x2="990" y2="420" stroke="#B5651D" stroke-width="2" opacity="0.2"/>
  <line x1="870" y1="440" x2="970" y2="440" stroke="#B5651D" stroke-width="2" opacity="0.12"/>
  <line x1="890" y1="460" x2="950" y2="460" stroke="#B5651D" stroke-width="2" opacity="0.08"/>
  <text x="600" y="500" text-anchor="middle" font-family="Georgia,'Times New Roman',serif" font-size="32" font-weight="700" fill="#1C2B24" filter="url(#shadow)">Cost To Replace Countertops</text>
  <text x="600" y="540" text-anchor="middle" font-family="system-ui,Helvetica,Arial,sans-serif" font-size="16" fill="#6B6459">National Average Cost Guide</text>
  <rect x="400" y="558" width="400" height="2" fill="#B5651D" opacity="0.15"/>
  <text x="40" y="610" font-family="system-ui,Helvetica,Arial,sans-serif" font-size="12" fill="#6B6459">HomeCostGuide</text>
</svg>