<?xml version="1.0" encoding="UTF-8"?>
<svg xmlns="http://www.w3.org/2000/svg" viewBox="0 0 1200 630" width="1200" height="630">
  <defs>
    <linearGradient id="bg" x1="0" y1="0" x2="0" y2="1">
      <stop offset="0%" stop-color="#3F6E52" stop-opacity="0.07"/>
      <stop offset="100%" stop-color="#FAF7F2" stop-opacity="0"/>
    </linearGradient>
    <linearGradient id="band" x1="0" y1="0" x2="1" y2="0">
      <stop offset="0%" stop-color="#3F6E52"/>
      <stop offset="100%" stop-color="#325940"/>
    </linearGradient>
  </defs>
  <rect width="1200" height="630" fill="#FAF7F2"/>
  <rect width="1200" height="630" fill="url(#bg)"/>
  <rect x="0" y="0" width="1200" height="8" fill="url(#band)"/>
  <circle cx="1050" cy="100" r="300" fill="#3F6E52" opacity="0.03"/>
  <circle cx="100" cy="500" r="250" fill="#325940" opacity="0.03"/>
  <rect x="40" y="40" width="380" height="500" rx="16" fill="#3F6E52" opacity="0.04"/>
  <rect x="520" y="180" width="160" height="200" rx="6" fill="#3F6E52" opacity="0.06" stroke="#3F6E52" stroke-width="1.5"/><rect x="540" y="200" width="50" height="50" rx="3" fill="#B5651D" opacity="0.12"/><rect x="600" y="200" width="60" height="50" rx="3" fill="#B5651D" opacity="0.08"/><rect x="540" y="260" width="50" height="50" rx="3" fill="#B5651D" opacity="0.08"/><rect x="600" y="260" width="60" height="50" rx="3" fill="#B5651D" opacity="0.12"/><rect x="540" y="320" width="120" height="40" rx="3" fill="#B5651D" opacity="0.06"/><rect x="545" y="335" width="30" height="6" rx="2" fill="#3F6E52" opacity="0.3"/><rect x="585" y="335" width="30" height="6" rx="2" fill="#3F6E52" opacity="0.3"/>
  <text x="600" y="350" text-anchor="middle" font-family="Georgia,'Times New Roman',serif" font-size="34" font-weight="700" fill="#1C2B24"><tspan x="600" dy="0">Cost to Replace Flooring by Type (LVP, Hardwood,</tspan><tspan x="600" dy="36">Tile, Carpet)</tspan></text>
  <text x="600" y="430" text-anchor="middle" font-family="system-ui,Helvetica,Arial,sans-serif" font-size="18" fill="#6B6459">National Average Cost</text>
  <rect x="460" y="445" width="280" height="50" rx="25" fill="#3F6E52" opacity="0.12"/>
  <text x="600" y="478" text-anchor="middle" font-family="Georgia,'Times New Roman',serif" font-size="22" font-weight="700" fill="#3F6E52">$3 &mdash; $15/sq ft</text>
  <rect x="0" y="590" width="1200" height="40" fill="#3F6E52" opacity="0.04"/>
  <text x="40" y="616" font-family="system-ui,Helvetica,Arial,sans-serif" font-size="13" fill="#6B6459">Interior Renovation</text>
  <text x="1140" y="616" text-anchor="end" font-family="Georgia,'Times New Roman',serif" font-size="15" font-weight="600" fill="#3F6E52">HomeCostGuide</text>
  <text x="600" y="616" text-anchor="middle" font-family="system-ui,Helvetica,Arial,sans-serif" font-size="12" fill="#6B6459">Source: HomeGuide 2026 &amp; Fixr 2026</text>
</svg>