<?xml version="1.0" encoding="UTF-8"?>
<svg xmlns="http://www.w3.org/2000/svg" viewBox="0 0 1200 630" width="1200" height="630">
  <defs>
    <linearGradient id="bg" x1="0" y1="0" x2="0" y2="1">
      <stop offset="0%" stop-color="#B5651D" stop-opacity="0.07"/>
      <stop offset="100%" stop-color="#FAF7F2" stop-opacity="0"/>
    </linearGradient>
    <linearGradient id="band" x1="0" y1="0" x2="1" y2="0">
      <stop offset="0%" stop-color="#B5651D"/>
      <stop offset="100%" stop-color="#945116"/>
    </linearGradient>
  </defs>
  <rect width="1200" height="630" fill="#FAF7F2"/>
  <rect width="1200" height="630" fill="url(#bg)"/>
  <rect x="0" y="0" width="1200" height="8" fill="url(#band)"/>
  <circle cx="1050" cy="100" r="300" fill="#B5651D" opacity="0.03"/>
  <circle cx="100" cy="500" r="250" fill="#945116" opacity="0.03"/>
  <rect x="40" y="40" width="380" height="500" rx="16" fill="#B5651D" opacity="0.04"/>
  <path d="M400 160 L600 80 L800 160 L800 400 L400 400 Z" fill="#B5651D" opacity="0.15"/><path d="M420 170 L600 100 L780 170 L780 390 L420 390 Z" fill="#B5651D" opacity="0.08"/><line x1="600" y1="100" x2="600" y2="390" stroke="#B5651D" stroke-width="2" opacity="0.2"/><rect x="540" y="280" width="120" height="110" fill="#FAF7F2" stroke="#B5651D" stroke-width="1.5" rx="4"/><rect x="560" y="300" width="80" height="8" fill="#B5651D" opacity="0.3" rx="2"/><rect x="560" y="316" width="60" height="6" fill="#B5651D" opacity="0.2" rx="2"/><rect x="560" y="330" width="70" height="6" fill="#B5651D" opacity="0.2" rx="2"/><rect x="560" y="352" width="40" height="8" fill="#3F6E52" opacity="0.4" rx="1"/>
  <text x="600" y="370" text-anchor="middle" font-family="Georgia,'Times New Roman',serif" font-size="34" font-weight="700" fill="#1C2B24"><tspan x="600" dy="0">Cost to Install a Fence (By Material &amp; Length)</tspan></text>
  <text x="600" y="430" text-anchor="middle" font-family="system-ui,Helvetica,Arial,sans-serif" font-size="18" fill="#6B6459">National Average Cost</text>
  <rect x="460" y="445" width="280" height="50" rx="25" fill="#B5651D" opacity="0.12"/>
  <text x="600" y="478" text-anchor="middle" font-family="Georgia,'Times New Roman',serif" font-size="22" font-weight="700" fill="#B5651D">$1,500 &mdash; $8,000</text>
  <rect x="0" y="590" width="1200" height="40" fill="#B5651D" opacity="0.04"/>
  <text x="40" y="616" font-family="system-ui,Helvetica,Arial,sans-serif" font-size="13" fill="#6B6459">Roofing &amp; Exterior</text>
  <text x="1140" y="616" text-anchor="end" font-family="Georgia,'Times New Roman',serif" font-size="15" font-weight="600" fill="#B5651D">HomeCostGuide</text>
  <text x="600" y="616" text-anchor="middle" font-family="system-ui,Helvetica,Arial,sans-serif" font-size="12" fill="#6B6459">Source: HomeGuide 2026 &amp; Fixr 2026</text>
</svg>